<?xml version="1.0" standalone="no"?>
<!DOCTYPE svg PUBLIC "-//W3C//DTD SVG 1.1//EN" "http://www.w3.org/Graphics/SVG/1.1/DTD/svg11.dtd">
<svg xmlns="http://www.w3.org/2000/svg">
<metadata>Copyright (C) 2018 by original authors @ fontello.com</metadata>
<defs>
<font id="fontello" horiz-adv-x="1000" >
<font-face font-family="fontello" font-weight="400" font-stretch="normal" units-per-em="1000" ascent="850" descent="-150" />
<missing-glyph horiz-adv-x="1000" />
<glyph glyph-name="left-open-big" unicode="&#xe800;" d="M452-20q26-26 0-48-26-26-48 0l-392 394q-24 24 0 50l392 394q22 26 48 0 26-22 0-48l-358-372z" horiz-adv-x="465" />

<glyph glyph-name="right-open-big" unicode="&#xe801;" d="M13-20l358 370-358 372q-26 26 0 48 26 26 48 0l392-394q24-26 0-50l-392-394q-22-26-48 0-26 22 0 48z" horiz-adv-x="465" />

<glyph glyph-name="star-empty" unicode="&#xe802;" d="M635 290l170 166-235 34-106 213-105-213-236-34 171-166-41-235 211 111 211-111z m294 199q0-12-15-27l-202-197 48-279q0-4 0-12 0-28-23-28-10 0-22 7l-251 132-250-132q-12-7-23-7-11 0-17 9t-6 19q0 4 1 12l48 279-203 197q-14 15-14 27 0 21 31 26l280 40 126 254q11 23 27 23t28-23l125-254 280-40q32-5 32-26z" horiz-adv-x="928.6" />

<glyph glyph-name="star" unicode="&#xe803;" d="M929 489q0-12-15-27l-202-197 48-279q0-4 0-12 0-11-6-19t-17-9q-10 0-22 7l-251 132-250-132q-12-7-23-7-11 0-17 9t-6 19q0 4 1 12l48 279-203 197q-14 15-14 27 0 21 31 26l280 40 126 254q11 23 27 23t28-23l125-254 280-40q32-5 32-26z" horiz-adv-x="928.6" />

<glyph glyph-name="arr-d" unicode="&#xe811;" d="M500 58a42 42 0 0 0-31 14l-458 500a42 42 0 1 0 61 56l428-466 428 466a42 42 0 1 0 61-56l-458-500a42 42 0 0 0-31-14z" horiz-adv-x="1000" />

<glyph glyph-name="cart" unicode="&#xe812;" d="M979 58h-605a21 21 0 0 0-7 2c-1 0-2 1-3 1a20 20 0 0 0-4 3c0 1-1 1-2 2a21 21 0 0 0-2 4c-1 1-1 2-1 3-1 1-1 1-1 2l-138 709c-2 13-16 24-29 24h-166a21 21 0 1 0 0 42h166c33 0 64-25 70-58l134-692h588a21 21 0 1 0 0-42z m-317 196a21 21 0 0 0-30-3l-125 104a21 21 0 1 0 27 32l108-90 174 232a21 21 0 0 0 34-25l-188-250z m-225-237a84 84 0 0 0 83-84 84 84 0 0 0-167 0 84 84 0 0 0 84 84z m0-125c23 0 42 18 42 41a42 42 0 0 1-84 0c0-23 19-41 42-41z m438 125a84 84 0 0 0 83-84 84 84 0 0 0-167 0 84 84 0 0 0 84 84z m0-125a42 42 0 0 1 42 41 42 42 0 0 1-84 0c0-23 19-41 42-41z" horiz-adv-x="1000" />

<glyph glyph-name="cashback" unicode="&#xe813;" d="M984 124a20 20 0 0 0-10-3 21 21 0 0 0-18 10l-71 123c-36-188-194-321-386-321-182 0-344 119-394 288-4 11 2 23 13 26a21 21 0 0 0 26-14c46-152 191-258 355-258 174 0 312 116 346 286l-108-74a21 21 0 0 0-29 6 21 21 0 0 0 5 28l153 105a21 21 0 0 0 30-7l96-167a21 21 0 0 0-8-28z m-487 205c-57 0-103 47-103 104a104 104 0 0 0 83 102v44a21 21 0 0 0 20 21c12 0 21-9 21-21v-41h62c12 0 21-10 21-21a21 21 0 0 0-21-21h-83a62 62 0 0 1-62-63 62 62 0 0 1 62-62c57 0 104-47 104-104a104 104 0 0 0-83-102v-44c0-12-9-21-21-21a21 21 0 0 0-20 21v42h-63a21 21 0 0 0-20 20c0 12 9 21 20 21h83a62 62 0 0 1 62 63c0 34-27 62-62 62z m379 124a21 21 0 0 0-26 14c-45 152-191 258-354 258-174 0-313-116-346-285l108 73a21 21 0 0 0 29-5 21 21 0 0 0-6-29l-153-105a21 21 0 0 0-29 7l-96 167a21 21 0 0 0 7 28 21 21 0 0 0 29-7l70-123c37 188 195 321 387 321 181 0 343-119 394-288a21 21 0 0 0-14-26z" horiz-adv-x="1000" />

<glyph glyph-name="exit" unicode="&#xe814;" d="M917-150h-500a83 83 0 0 0-84 83v209a42 42 0 1 0 84 0v-209h500v834h-500v-209a42 42 0 0 0-84 0v209c0 46 38 83 84 83h500c46 0 83-37 83-83v-834c0-46-37-83-83-83z m-405 637a42 42 0 0 0 59 59l167-166a42 42 0 0 0 0-59l-167-167a42 42 0 1 0-59 59l96 95h-566a42 42 0 0 0 0 84h566l-96 95z" horiz-adv-x="1000" />

<glyph glyph-name="fa" unicode="&#xe815;" d="M748 466l-22-86c-11-41-51-72-94-72h-43v-375c0-46-38-83-84-83h-85c-47 0-81 37-81 83v375h-4c-47 0-85 38-85 84v83c0 46 38 83 85 83h4v67a41 41 0 0 0-4 17c0 100 56 208 212 208h127c24 0 43-19 43-42v-166c0-23-19-42-43-42h-85v-42h85c25 0 47-10 61-28 14-17 18-41 13-64z m-201 9a42 42 0 0 0-42 42v125c0 23 19 41 42 41h85v84h-85c-84 0-127-42-127-125v-125c0-23-19-42-43-42h-42v-83h42c24 0 43-19 43-42v-417h87v406c-1 4-2 7-2 11 0 23 19 42 42 42h85c4 0 10 5 11 9l19 74h-115z" horiz-adv-x="1000" />

<glyph glyph-name="goog" unicode="&#xe816;" d="M958 308h-83v-84a42 42 0 1 0-83 0v84h-84a42 42 0 1 0 0 83h84v83a42 42 0 1 0 83 0v-83h83a42 42 0 1 0 0-83z m-666-250c-161 0-292 131-292 292 0 161 131 292 292 292 78 0 151-31 206-86a42 42 0 1 0-59-59 207 207 0 0 1-147 61c-115 0-209-93-209-208s94-208 209-208a209 209 0 0 1 204 166h-204a42 42 0 1 0 0 84h250a42 42 0 0 0 41-42l0 0c0-161-131-292-291-292z" horiz-adv-x="1000" />

<glyph glyph-name="next" unicode="&#xe817;" d="M997 361c1-1 1-1 1-2a20 20 0 0 0 0-16c0-1 0-1-1-1a21 21 0 0 0-3-6l-1 0-291-270a21 21 0 0 0-30 1 21 21 0 0 0 1 29l253 234h-905a21 21 0 1 0 0 42h905l-253 234a21 21 0 0 0-1 29 21 21 0 0 0 30 1l291-270c1 0 1 0 1 0a21 21 0 0 0 3-5z" horiz-adv-x="1000" />

<glyph glyph-name="prev" unicode="&#xe818;" d="M3 361c-1-1-1-1-1-2a20 20 0 0 1 0-16c0-1 0-1 1-1 1-2 2-4 3-6l1 0 291-270a21 21 0 0 1 30 1 21 21 0 0 1-1 29l-253 234h905a21 21 0 1 1 0 42h-905l253 234a21 21 0 0 1 1 29 21 21 0 0 1-30 1l-291-270c0 0 0 0-1 0a21 21 0 0 1-3-5z" horiz-adv-x="1000" />

<glyph glyph-name="search" unicode="&#xe819;" d="M992-144a21 21 0 0 0-29 0l-340 340c-66-59-153-96-249-96-206 0-374 168-374 375s168 375 374 375c207 0 375-168 375-375 0-96-37-183-96-250l339-339a21 21 0 0 0 0-30z m-618 952c-183 0-332-149-332-333s149-333 332-333c184 0 333 149 333 333s-149 333-333 333z" horiz-adv-x="1000" />

<glyph glyph-name="tw" unicode="&#xe81a;" d="M660 683c49 0 94-20 125-53a347 347 0 0 1 108 41 169 169 0 0 0-75-93 348 348 0 0 1 98 27 347 347 0 0 0-85-87c0-8 1-15 1-22 0-222-142-479-456-479-125 0-217 29-292 76 13-1 27-2 40-2 80 0 154 27 213 72-75 1-138 41-160 108a174 174 0 0 1 77 3c-78 15-130 83-130 164v2a173 173 0 0 1 77-21 167 167 0 0 0-76 140c0 31 9 60 24 85 84-102 203-160 345-167a164 164 0 0 0-5 38c0 93 77 168 171 168z m256-78h1-1z m-256 162c-120 0-221-83-247-193-77 21-145 57-200 123a83 83 0 0 1-71 30 83 83 0 0 1-65-41 249 249 0 0 1-24-201c-8-13-12-29-12-45v-2c0-60 19-115 53-158-1-11 0-23 3-34 10-30 25-48 43-71a250 250 0 0 0-46 1 83 83 0 0 1-55-153c95-60 206-90 337-90 214 0 341 102 411 188 78 96 124 225 128 357a430 430 0 0 1 69 77c10 14 16 31 16 50 0 22-9 43-24 58a84 84 0 0 1-125 80 258 258 0 0 0-46-21 258 258 0 0 1-145 45z" horiz-adv-x="1000" />

<glyph glyph-name="vk" unicode="&#xe81b;" d="M801 17c-21 0-60 4-94 29-18 12-34 29-49 45a474 474 0 0 1-31 30v-62a42 42 0 0 0-42-42h-41c-67 0-196 17-309 130-134 133-224 386-228 397-4 9-16 44 4 71a40 40 0 0 0 4 4 73 73 0 0 0 53 23c4 0 7-1 10-1 17 0 91 1 118 1 47 0 71-34 77-55 0 0 23-66 49-113a232 232 0 0 1 56-69v82c0 23-6 54-15 62a63 63 0 0 1-20 12c-16 1-32 16-36 35-6 32 23 60 45 70 31 16 79 17 89 17l91 0c59 0 96-39 96-103 0-18 0-88-1-148 8 11 16 25 25 41 27 48 52 119 53 120 3 8 11 25 27 36 15 9 35 12 49 12l116 0a147 147 0 0 0 8 0c86 0 95-43 95-61 0-45-23-94-84-181-12-17-22-31-31-44-18-24-37-49-38-57 2-3 19-20 36-37 79-77 99-111 103-119 19-34 15-62 8-78-14-35-49-44-55-46a40 40 0 0 0-10-1h-120a114 114 0 0 0-8 0z m-216 208c58 0 99-42 132-76 14-14 26-27 38-35 17-13 38-14 46-14l3 0 110 0c0 1-1 2-1 3-1 2-17 30-86 97-85 84-79 108-9 204 9 13 19 27 30 43 36 51 57 86 65 111a207 207 0 0 1-8 0l-5 0h-118a14 14 0 0 1-2 0c-7-18-30-79-55-126-64-115-114-135-132-138a42 42 0 0 0-35 9 42 42 0 0 0-14 32s1 211 1 245c0 12-2 18-3 19 0 0-2 1-10 1l-91 0c-4 0-8 0-12 0 32-40 32-102 32-115v-150a42 42 0 0 0-52-41c-4 1-98 26-160 140-29 54-53 124-54 126-22-1-78-2-105-2 22-57 101-250 203-352 93-92 197-106 251-106v83a42 42 0 0 0 41 42z" horiz-adv-x="1000" />

<glyph glyph-name="mail" unicode="&#xe81c;" d="M508 642c79-1 154-34 209-91l0-1c-1 12 3 24 11 33 8 8 20 13 32 13l6 0c13 0 25-5 33-14 9-9 14-22 13-34l-3-412c-2-11 4-22 14-28 10-5 23-3 31 5 67 67 148 347-37 512-148 130-363 149-531 45-153-108-210-307-138-479 88-207 343-270 495-210 78 31 112-74 32-107-121-50-457-43-612 230-132 237-49 536 186 672 218 126 494 89 670-91 177-188 164-537-12-672-35-27-83-32-124-13-41 19-68 58-71 103l0 29c-56-54-131-85-209-84-162 5-291 136-294 298 4 162 136 293 299 296l0 0 0 0z m196-289c-1 51-21 99-58 134-36 35-85 54-136 52l-4 0c-119 1-186-92-187-198-4-51 13-102 48-139 35-37 84-58 136-57 106-4 196 79 201 185l0 23z" horiz-adv-x="1045" />

<glyph glyph-name="close" unicode="&#xe81e;" d="M541 351l444-445c12-12 12-32 0-44-6-6-14-9-22-9-8 0-16 3-22 9l-444 445-444-445c-6-6-14-9-22-9-8 0-16 3-22 9-12 12-12 32 0 44l444 445-444 446c-12 12-12 32 0 44 12 12 32 12 44 0l444-445 444 445c12 12 32 12 44 0 12-12 12-32 0-44l-444-446z" horiz-adv-x="1000" />

<glyph glyph-name="offline" unicode="&#xe831;" d="M997 475c0-33-14-62-36-85l0-457c0-46-43-83-89-83l-207 0c-46 0-80 37-80 83l0 251-170-1 0-250c0-46-37-83-83-83l-207 0c-46 0-83 37-83 83l0 452c-26 23-42 54-42 90 0 1 1 3 1 4 0 1 0 2 0 4l61 333c0 1 1 3 1 4 1 3 2 5 3 8 2 2 3 4 5 7 1 1 3 3 5 5 2 2 5 3 7 5 2 1 4 2 7 2 2 1 5 2 8 2 2 0 3 1 5 1l791 0c2 0 3-1 5-1 3 0 5-1 8-1 2-1 5-2 7-4 2-1 5-2 7-4 2-2 3-3 5-6 2-2 3-4 4-6 2-2 3-5 4-8 0-1 1-2 1-4l61-323c1-4 1-9 0-13 0-2 1-3 1-5z m-872-542l209 0 0 251c0 46 36 83 81 83l167 0c45 0 83-38 83-84l0-250 212 0 0 418c-4 0-8-1-13-1-36 0-68 13-91 35-24-22-56-35-92-35-35 0-67 13-91 35-24-22-56-35-92-35-35 0-67 13-91 35-24-22-56-35-91-35-36 0-68 13-92 35-24-22-56-35-91-35-3 0-6 1-8 1l0-418z m8 500c27 0 50 19 50 42 0 23 18 42 41 42 23 0 42-19 42-42 0-23 22-42 50-42 27 0 50 19 50 42 0 23 18 42 41 42 23 0 42-19 42-42 0-23 22-42 49-42 28 0 50 19 50 42 0 23 19 42 42 42 23 0 41-19 41-42 0-23 23-42 50-42 28 0 50 19 50 42 0 23 19 42 42 42 23 0 41-19 41-42 0-23 22-42 50-42 27 0 50 19 50 42 0 1 0 2 0 3l-54 291-722 0-54-296c1-22 22-40 49-40z" horiz-adv-x="1000" />

<glyph glyph-name="cross" unicode="&#xe832;" d="M571 350l414-415c20-19 20-51 0-70-9-10-22-15-35-15-13 0-26 5-35 15l-415 414-414-414c-10-10-23-15-36-15-13 0-25 5-35 15-20 19-20 51 0 70l414 415-414 415c-20 19-20 51 0 70 19 20 51 20 71 0l414-414 415 414c19 20 51 20 70 0 20-19 20-51 0-70l-414-415z" horiz-adv-x="1000" />

<glyph glyph-name="vip" unicode="&#xe833;" d="M928-108l-856 0c-40 0-72 32-72 72l0 606c0 39 32 72 72 72l303 0 0 125c0 23 19 41 42 41l166 0c23 0 42-18 42-41l0-125 303 0c40 0 72-33 72-72l0-606c0-40-32-72-72-72z m-386 833l-84 0 0-167 84 0 0 167z m375-167l-292 0 0-41c0-23-19-42-42-42l-166 0c-23 0-42 19-42 42l0 41-292 0 0-583 834 0 0 583z m-724-169c21 8 46-2 54-23l45-112 44 112c9 21 33 31 55 23 21-9 31-33 23-54l-84-209c-6-16-21-26-38-26-17 0-33 10-39 26l-83 209c-9 21 2 45 23 54z m307 3c23 0 42-19 42-42l0-208c0-23-19-42-42-42-23 0-42 19-42 42l0 208c0 23 19 42 42 42z m125 0c1 0 1-1 2-1 0 0 1 1 2 1l100 0c58 0 104-47 104-104 0-58-46-105-104-105l-62 0 0-41c0-23-19-42-42-42-23 0-42 19-42 42l0 208c0 23 19 42 42 42z m104-125c12 0 21 9 21 21 0 11-9 20-21 20l-62 0 0-41 62 0z" horiz-adv-x="1000" />

<glyph glyph-name="newtab" unicode="&#xe834;" d="M42-150l750 0c23 0 41 19 41 42l0 750c0 23-18 41-41 41l-750 0c-23 0-42-18-42-41l0-750c0-23 19-42 42-42z m41 750l667 0 0-667-667 0 0 667z m500-292l-125 0 0 125c0 23-18 42-41 42-23 0-42-19-42-42l0-125-125 0c-23 0-42-18-42-41 0-23 19-42 42-42l125 0 0-125c0-23 19-42 42-42 23 0 41 19 41 42l0 125 125 0c23 0 42 19 42 42 0 23-19 41-42 41z m-375 459l709 0 0-709c0-23 18-41 41-41 23 0 42 18 42 41l0 750c0 23-19 42-42 42l-750 0c-23 0-41-19-41-42 0-23 18-41 41-41z" horiz-adv-x="1000" />

<glyph glyph-name="shop" unicode="&#xe835;" d="M996 505l-126-417c-5-18-21-30-39-30l-390 0c0 0 0 0 0 0 0 0 0 0 0 0-5 0-10 2-14 3-2 1-3 2-5 3-3 1-5 3-8 5-1 1-2 3-4 4-2 3-3 5-5 8-1 2-2 3-2 5-1 1-1 2-2 3l-170 628c-7 26-38 50-65 50l-125 0c-23 0-41 18-41 41 0 23 18 42 41 42l125 0c65 0 128-49 145-111l49-181 596 0c13 0 26-6 34-16 7-11 10-25 6-37z m-613-30l90-333 327 0 100 333-517 0z m116-458c46 0 83-38 83-84 0-46-37-83-83-83-46 0-83 37-83 83 0 46 37 84 83 84z m291 0c46 0 83-38 83-84 0-46-37-83-83-83-46 0-83 37-83 83 0 46 37 84 83 84z" horiz-adv-x="1000" />

<glyph glyph-name="skirt" unicode="&#xe841;" d="M992 664l-61-202a42 42 0 0 0-40-31h-63v-550c0-23-14-35-37-35h-583c-23 0-42 12-42 35v550h-64a42 42 0 0 0-40 32l-60 201a43 43 0 0 0 20 49l243 128a41 41 0 0 0 52-12c1-1 80-107 180-107 98 0 178 109 179 110a41 41 0 0 0 53 13l242-133c18-9 26-29 21-48z m-273 90c-38-42-119-117-222-117-104 0-185 73-223 114l-184-97 44-138h73c23 0 41-19 41-42l2-544h500v525a42 42 0 0 0 36 61h74l43 138-184 100z" horiz-adv-x="1000" />

<glyph glyph-name="list" unicode="&#xe842;" d="M827 219c-99-107-237-162-408-162-74 0-156 11-244 32-81-122-92-200-92-201a42 42 0 0 0-46-37 42 42 0 0 0-37 46c1 8 14 112 125 267-1 92 11 351 172 525 146 158 373 201 670 127 17-5 30-20 31-38 2-14 24-349-171-559z m-469 414c-97-105-132-252-144-359 62 69 142 143 244 221v108a42 42 0 1 0 83 0v-47a2992 2992 0 0 0 272 167 42 42 0 0 0 57-16 42 42 0 0 0-17-57c-160-88-287-175-388-256h201a42 42 0 0 0 42-42c0-23-19-42-42-42h-291c-2 0-4 1-6 2a1391 1391 0 0 1-139-149c239-50 420-12 536 113 138 149 151 383 150 466-250 56-438 19-558-109z" horiz-adv-x="1000" />

<glyph glyph-name="chair" unicode="&#xe843;" d="M1000 258a133 133 0 0 0-83-123v-155c0-1-1-1-1-2 0-1 1-2 1-3a42 42 0 0 0-42-42v-41a42 42 0 1 0-83 0v41h-584v-41a42 42 0 1 0-83 0v41a42 42 0 0 0-42 42c0 1 1 2 1 3 0 1-1 1-1 2v155a134 134 0 0 0-83 123 134 134 0 0 0 133 134c1 0 1 0 2 0a453 453 0 0 0-10 87c0 205 168 371 375 371s375-166 375-371c0-33-4-62-9-87l1 0a134 134 0 0 0 133-134z m-917 0c0-21 14-40 34-47 4-1 6-3 10-6 22-1 40-19 40-41v-147h666v147c0 22 18 40 40 41 3 3 7 5 10 6a50 50 0 0 1-16 97c-14 0-26-5-35-14 0 0-1-1-2-2a50 50 0 0 1-13-34c0 0-1 0-1-1 0 0 1-1 1-1v-114a42 42 0 0 0-42-42h-550a42 42 0 0 0-42 42c0 4 2 7 3 11-1 3-3 7-3 11v92c0 0 1 1 1 1 0 1-1 1-1 1 0 12-4 22-10 30a40 40 0 0 0-10 9 49 49 0 0 1-30 11 50 50 0 0 1-50-50z m417 509c-161 0-292-129-292-288 0-53 17-109 24-132 21-24 35-54 35-89 0 0-1 0-1-1 0 0 1-1 1-1v-73h466v73c0 0 1 1 1 1 0 1-1 1-1 1 0 34 14 65 35 89 6 15 24 66 24 132 0 161-128 288-292 288z" horiz-adv-x="1000" />

<glyph glyph-name="tv" unicode="&#xe844;" d="M928 100h-856c-40 0-72 32-72 71v525c0 39 32 71 72 71h856c40 0 72-32 72-71v-525c0-39-32-71-72-71z m-11 583h-834v-500h834v500z m-667-666h500a42 42 0 1 0 0-84h-500a42 42 0 1 0 0 84z" horiz-adv-x="1000" />

<glyph glyph-name="duck" unicode="&#xe845;" d="M936 395c-8-8-16-15-25-21 53-57 83-130 83-207 0-175-141-317-315-317h-300c0 0-1 0-1 0 0 0-1 0-1 0-211 0-377 163-377 372 0 89 28 175 76 237a41 41 0 0 0 74-18c0-1 18-90 78-91 1 0 2 0 2 0h150a291 291 0 0 0-88 208c0 161 130 292 290 292 130 0 241-86 277-208l94-1c4 0 7-1 11-2 1 0 2 0 2 0a40 40 0 0 0 12-7c1-1 2-1 2-2 3-2 5-5 7-9 1-1 2-2 3-4 1-3 2-6 2-9 1-2 2-3 2-6 1-13 7-137-58-207z m-109 163c-1 0-3 1-4 1a37 37 0 0 0-15 5 39 39 0 0 0-13 10 42 42 0 0 0-4 7 41 41 0 0 0-3 8c-1 1-2 2-2 4a207 207 0 0 1-204 174c-114 0-207-94-207-209s93-208 207-208c23 0 41-19 41-42 0-23-18-41-41-41h-350c-1 0-1-1-2-1-60 0-100 34-126 73a336 336 0 0 1-21-117c0-162 129-289 294-289 0 0 1 0 1 0 0 0 1 0 1 0h300c128 0 232 105 232 234 0 75-39 144-107 189-1 1-2 2-3 3a40 40 0 0 0-6 6 39 39 0 0 0-9 22c0 1 0 3 0 4 0 1 0 2 0 4a41 41 0 0 0 2 8 39 39 0 0 0 3 8c1 1 1 2 1 3 1 1 2 2 3 3a38 38 0 0 0 6 6 40 40 0 0 0 22 9c2 0 3 1 4 1 20 0 36 6 48 19 24 26 33 71 35 106l-83 0z m-206 84h83v-84h-83v84z" horiz-adv-x="1000" />

<glyph glyph-name="heart" unicode="&#xe846;" d="M915 346c0 0 0 0 0 0l-333-413c-23-27-54-41-87-41a115 115 0 0 0-86 39l-333 415c-1 0-1 0-1 0-101 107-100 277 3 382a264 264 0 0 0 190 80c70 0 136-27 187-77 0 0 0 0 1 0l39-34 40 34c0 0 1 0 1 0 50 50 116 77 186 77 72 0 139-28 190-80 103-105 104-275 3-382z m-62 324a183 183 0 0 1-131 55 183 183 0 0 1-131-55c0-1-1-1-2-1 0-1 0-1-1-2l-66-57c-1-1-3-1-4-2-3-2-5-4-9-5 0 0-1 0-2 0-4-2-8-3-12-3a41 41 0 0 0-17 4c-3 2-7 4-10 6l-66 57c0 1-1 1-1 2-1 0-1 0-2 1a183 183 0 0 1-131 55 183 183 0 0 1-131-55c-73-74-73-195 0-269 1 0 1-1 1-2 1 0 1 0 2-1l332-413c11-12 34-13 47 2l332 411c0 1 1 1 1 1 1 1 1 2 1 2 73 74 73 195 0 269z" horiz-adv-x="1000" />

<glyph glyph-name="burger" unicode="&#xe847;" d="M958 225h-125c-17 0-26-7-47-42h172a42 42 0 0 0 42-41c0-72-35-209-167-209h-666c-132 0-167 137-167 209a42 42 0 0 0 42 41h276c-4 4-9 8-12 13l-4 4c-13 16-20 25-52 25h-208a42 42 0 1 0 0 83h208c72 0 100-35 117-56l3-3c20-25 58-31 74-19 24 18 53 41 90 32 36-8 57-42 75-77 14-28 33-41 44-41 13-1 22 14 27 23 6 10 11 19 16 28 34 61 64 113 137 113h125a42 42 0 1 0 0-83z m-305-165h-2c-30 1-58 16-82 40l0 0h-481c8-36 28-83 79-83h666c51 0 71 47 79 83h-178c-29-33-61-40-81-40z m305 290h-916a41 41 0 0 0-30 12 42 42 0 0 0-12 30c2 249 171 375 500 375s498-126 500-375a42 42 0 0 0-12-30 41 41 0 0 0-30-12z m-458 333c-331 0-402-132-414-250h828c-12 118-83 250-414 250z" horiz-adv-x="1000" />

<glyph glyph-name="world" unicode="&#xe848;" d="M500-147c-276 0-500 224-500 499s224 499 500 499 500-224 500-499-224-499-500-499z m360 291h-103a647 647 0 0 0-91-174c82 36 149 98 194 174z m-193 0h-125v-189a570 570 0 0 1 125 189z m41 208a547 547 0 0 1-15 124h-151v-249h151c10 41 15 82 15 125z m-250-208h-125a570 570 0 0 1 125-189v189z m-124-174a648 648 0 0 0-91 174h-102c44-76 112-138 193-174z m-251 382c0-44 7-86 20-125h118a637 637 0 0 0-13 125c0 42 5 84 13 124h-118a413 413 0 0 1-20-124z m58 208h103a647 647 0 0 0 90 173c-81-35-149-97-193-173z m317 188a570 570 0 0 1-125-188h125v188z m-151-272c-10-40-15-82-15-124 0-43 5-84 15-125h151v249h-151z m235 84h125a571 571 0 0 1-125 188v-188z m124 173a648 648 0 0 0 91-173h103c-45 76-112 137-194 173z m231-257h-118c8-40 13-82 13-124 0-42-5-84-13-125h118a413 413 0 0 1 0 249z" horiz-adv-x="1000" />

<glyph glyph-name="filter" unicode="&#xe849;" d="M917 441v-549a42 42 0 0 0-84 0v549a125 125 0 0 0-83 117c0 55 35 100 83 118v132a42 42 0 0 0 84 0v-132c48-18 83-63 83-118a125 125 0 0 0-83-117z m-42 159a42 42 0 0 1 0-83 42 42 0 0 1 0 83z m-333-576v-132a42 42 0 0 0-84 0v132a125 125 0 0 0-83 118c0 54 35 100 83 117v549a42 42 0 0 0 84 0v-549c48-17 83-63 83-117a125 125 0 0 0-83-118z m-42 159a42 42 0 0 1 0-83 42 42 0 0 1 0 83z m-333 50v-341a42 42 0 0 0-84 0v341a125 125 0 0 0-83 117c0 54 35 100 83 117v341a42 42 0 0 0 84 0v-341c48-17 83-63 83-117a125 125 0 0 0-83-117z m-42 159c-23 0-42-19-42-42 0-23 19-42 42-42 23 0 42 19 42 42 0 23-19 42-42 42z" horiz-adv-x="1000" />

<glyph glyph-name="car" unicode="&#xe84a;" d="M1042 433h-62l0-1c35-5 62-36 62-74v-266c0-42-33-75-72-75h-12v-42a42 42 0 0 0-41-42h-167a42 42 0 0 0-42 42v42h-333v-42a42 42 0 0 0-42-42h-166a42 42 0 0 0-42 42v42h-11c-40 0-72 33-72 75v266c0 38 27 69 61 74l0 1h-61a42 42 0 1 0 0 84h83c1 0 1-1 2-1l60 191c10 34 45 60 80 60h550c35 0 69-26 80-60l60-191c0 0 1 1 1 1h84a42 42 0 1 0 0-84z m-225 249l-550 1-79-250h707l-78 249z m141-332h-833v-250h833v250z m-687-42a63 63 0 1 0-63-62c0 34 28 62 63 62z m542 0a63 63 0 1 0-63-62c0 34 28 62 63 62z" horiz-adv-x="1083" />

<glyph glyph-name="copy" unicode="&#xe84b;" d="M958 17a42 42 0 0 0-41 41v709h-709a42 42 0 1 0 0 83h709c46 0 83-37 83-83v-709a42 42 0 0 0-42-41z m-125 583v-667c0-46-37-83-83-83h-667c-46 0-83 37-83 83v667c0 46 37 83 83 83h667c46 0 83-37 83-83z m-750-667h667l0 500h-667v-500z m0 584h667v83h-667v-83z" horiz-adv-x="1000" />

<glyph glyph-name="arms" unicode="&#xe84c;" d="M958 141h-68l5-8c1-2 2-4 3-7 14-35 20-113-55-151-25-12-48-17-66-17-11 0-20 1-28 4a110 110 0 0 0-35-31c-30-16-55-22-76-22-15 0-27 4-38 8a117 117 0 0 0-29-20c-25-13-49-18-69-18-22 0-40 6-53 14-8-9-19-18-33-26-22-12-43-17-62-17a109 109 0 0 0-90 49l-115 164c-6 7-37 36-65 36h-42a42 42 0 0 0-41 51v491a42 42 0 0 0 42 42h125c27 0 43 5 67 13 39 13 89 29 204 29 3 0 6-1 9-2 60 63 87 85 145 85h58c111 0 145-19 206-60 82-55 115-67 115-67 17-6 28-22 28-40v-459a42 42 0 0 0-42-41z m-790 459h-84v-418c71 0 125-61 131-68l118-169c15-20 36-9 43-5 9 5 15 11 18 17l-110 153a42 42 0 1 0 67 48l141-194c3-1 17-5 42 7a35 35 0 0 1 10 8l-109 162a42 42 0 1 0 69 47l131-195c5-1 18 0 39 12 9 4 12 10 12 18l-100 150a42 42 0 0 0 12 58 42 42 0 0 0 58-12l118-178c4 0 15 0 32 9 23 11 18 34 15 43l-242 399c-24-22-58-48-93-65-81-39-141-44-184-17-32 21-50 57-50 104 0 35 23 51 44 67 15 11 38 27 70 57a427 427 0 0 1-106-21c-27-9-52-17-92-17z m749 15c-22 11-56 30-107 64-51 34-69 46-159 46h-58c-27 0-34-5-106-81l-19-21c-61-64-99-93-123-109-3-3-7-5-9-7 1-9 3-22 10-26 13-8 46-6 104 21 53 25 106 84 107 84a42 42 0 0 0 66-6l216-356h78v391z" horiz-adv-x="1000" />

<glyph glyph-name="bird" unicode="&#xe84d;" d="M625-17l0-91c0-23-19-42-42-42-23 0-41 19-41 42l0 83c-29 0-57 3-84 8l0-91c0-23-18-42-41-42-23 0-42 19-42 42l0 115c-170 67-292 232-292 426l0 45c-1 1-3 2-5 3l-61 46c-11 8-17 20-17 33 0 13 6 26 17 34l61 45c2 2 4 2 5 3 1 115 94 208 209 208 115 0 208-93 208-208l0-167 458 0c23 0 42-19 42-42 0-224-162-411-375-450z m288 409l-409 0c20-95 104-167 204-167 101 0 185 72 205 167z m-496 250c0 69-56 125-125 125-69 0-125-56-125-125l0-209c0-206 168-375 375-375 97 0 185 37 252 98-28-8-56-14-86-14-160 0-291 131-291 291l0 209z m-146-84c-35 0-63 28-63 63 0 34 28 62 63 62 34 0 62-28 62-62 0-35-28-63-62-63z" horiz-adv-x="1000" />

<glyph glyph-name="plane" unicode="&#xe84e;" d="M932 596c-1-1-1-1-2-2l-180-176 0-484c0-16-9-31-23-38l-84-42c-11-5-24-5-36 0-12 6-20 16-23 29l-68 311-140-113 0-147c0-16-9-31-23-38l-84-42c-6-2-12-4-18-4-6 0-12 1-18 4-11 5-19 15-23 28l-34 137-143 31c-15 4-27 16-31 31-4 15 1 31 13 42l83 74c8 6 17 10 27 10l105 0 114 147-311 73c-13 3-23 12-29 24-5 12-4 26 2 38l42 73c7 14 19 38 34 38l501 0 159 172c64 65 121 78 159 78 0 0 0 0 0 0 30 0 57-9 72-24 13-13 28-42 28-82 0-35-12-89-69-148z m-18 169c-13 3-55 7-113-51l-188-201c-8-8-18 3-30 3l-459 0-18-20 320-76c14-3 25-13 30-27 4-13 2-28-7-39l-166-215c-8-10-20-16-33-16l-109 0-10-8 67-15c1 0 1 0 1 0 22 6 45-8 51-30l29-117 14 7 0 141c0 13 6 25 16 33l207 167c11 9 26 12 40 7 13-5 24-16 27-30l71-325 13 7 0 476c0 11 5 22 13 30l190 186c1 0 1 1 1 2 57 56 48 98 43 111z" horiz-adv-x="1000" />

<glyph glyph-name="down-open" unicode="&#xf004;" d="M0 533q0 25 18 43t44 18 42-18l305-303 304 303q18 18 43 18t43-18q18-18 18-43t-18-43l-390-391-391 391q-18 19-18 43z" horiz-adv-x="817.4" />

<glyph glyph-name="youtube" unicode="&#xf167;" d="M542 156v-118q0-37-22-37-13 0-25 12v168q12 12 25 12 22 0 22-37z m189-1v-25h-51v25q0 38 25 38t26-38z m-540 122h60v52h-174v-52h59v-318h55v318z m161-318h50v276h-50v-211q-17-23-32-23-10 0-11 11-1 2-1 20v203h-50v-218q0-28 5-41 7-21 32-21 27 0 57 34v-30z m240 83v110q0 41-5 55-10 31-40 31-28 0-52-30v121h-50v-370h50v27q25-31 52-31 30 0 40 31 5 15 5 56z m188 6v7h-51q0-29-1-34-4-20-22-20-26 0-26 38v49h100v57q0 44-15 65-22 28-59 28-38 0-60-28-15-21-15-65v-96q0-44 16-65 22-29 60-29 40 0 60 30 10 15 12 30 1 5 1 33z m-339 509v117q0 39-24 39t-24-39v-117q0-39 24-39t24 39z m401-419q0-131-14-195-8-33-33-56t-57-25q-102-12-309-12t-310 12q-32 3-57 25t-32 56q-15 62-15 195 0 131 15 195 7 33 32 56t57 26q103 11 310 11t309-11q33-4 58-26t32-56q14-62 14-195z m-557 712h57l-67-223v-151h-56v151q-8 42-34 119-21 57-37 104h60l39-147z m207-186v-97q0-46-16-66-21-29-59-29-37 0-59 29-15 21-15 66v97q0 45 15 66 22 28 59 28 38 0 59-28 16-21 16-66z m187 91v-279h-51v31q-30-35-58-35-25 0-33 21-4 13-4 42v220h51v-205q0-19 0-20 2-12 12-12 15 0 32 24v213h51z" horiz-adv-x="857.1" />

<glyph glyph-name="instagram" unicode="&#xf16d;" d="M571 350q0 59-41 101t-101 42-101-42-42-101 42-101 101-42 101 42 41 101z m77 0q0-91-64-156t-155-64-156 64-64 156 64 156 156 64 155-64 64-156z m61 229q0-21-15-36t-37-15-36 15-15 36 15 36 36 15 37-15 15-36z m-280 123q-4 0-43 0t-59 0-54-2-57-5-40-11q-28-11-49-32t-33-49q-6-16-10-40t-6-58-1-53 0-59 0-43 0-43 0-59 1-53 6-58 10-40q12-28 33-49t49-32q16-6 40-11t57-5 54-2 59 0 43 0 42 0 59 0 54 2 58 5 39 11q28 11 50 32t32 49q6 16 10 40t6 58 1 53 0 59 0 43 0 43 0 59-1 53-6 58-10 40q-11 28-32 49t-50 32q-16 6-39 11t-58 5-54 2-59 0-42 0z m428-352q0-128-3-177-5-116-69-180t-179-69q-50-3-177-3t-177 3q-116 6-180 69t-69 180q-3 49-3 177t3 177q5 116 69 180t180 69q49 3 177 3t177-3q116-6 179-69t69-180q3-49 3-177z" horiz-adv-x="857.1" />

<glyph glyph-name="odnoklassniki" unicode="&#xf263;" d="M357 344q-105 0-179 74t-74 179q0 105 74 179t179 74 179-74 75-179q0-105-75-179t-179-74z m0 378q-51 0-88-37t-36-88q0-52 36-88t88-37 88 37 37 88q0 52-37 88t-88 37z m292-409q7-15 8-27t-2-23-15-21-24-21-34-23q-64-41-176-53l41-40 149-149q17-17 17-41t-17-41l-7-7q-17-17-41-17t-41 17q-38 38-149 149l-149-149q-18-17-42-17t-40 17l-7 7q-17 17-17 41t17 41l149 149 40 40q-113 12-177 53-21 14-34 23t-24 21-15 21-2 23 8 27q6 11 16 20t23 12 32-1 36-20q3-2 8-6t24-13 39-17 51-14 63-6q51 0 97 14t67 28l21 14q19 15 37 20t31 1 23-12 16-20z" horiz-adv-x="714.3" />
</font>
</defs>
</svg>
